<mxfile host="app.diagrams.net" agent="Mozilla/5.0 (Windows NT 10.0; Win64; x64; rv:143.0) Gecko/20100101 Firefox/143.0" version="28.2.5">
  <diagram name="Page-1" id="pYqhyF_JLRZwNlh6PruP">
    <mxGraphModel grid="1" page="1" gridSize="10" guides="1" tooltips="1" connect="1" arrows="1" fold="1" pageScale="1" pageWidth="827" pageHeight="1169" math="0" shadow="0">
      <root>
        <mxCell id="0" />
        <mxCell id="1" parent="0" />
        <mxCell id="2kMUtfdc5iDkAqZG1BJQ-2" value="V_sugerencias" style="rounded=0;whiteSpace=wrap;html=1;fillColor=#ffe6cc;strokeColor=#d79b00;" vertex="1" parent="1">
          <mxGeometry x="220" y="20" width="120" height="60" as="geometry" />
        </mxCell>
        <mxCell id="2kMUtfdc5iDkAqZG1BJQ-5" value="Actor" style="shape=umlActor;verticalLabelPosition=bottom;verticalAlign=top;html=1;outlineConnect=0;" vertex="1" parent="1">
          <mxGeometry x="30" y="20" width="30" height="60" as="geometry" />
        </mxCell>
        <mxCell id="2kMUtfdc5iDkAqZG1BJQ-6" style="edgeStyle=orthogonalEdgeStyle;rounded=0;orthogonalLoop=1;jettySize=auto;html=1;exitX=0.5;exitY=1;exitDx=0;exitDy=0;" edge="1" parent="1" source="2kMUtfdc5iDkAqZG1BJQ-2" target="2kMUtfdc5iDkAqZG1BJQ-2">
          <mxGeometry relative="1" as="geometry" />
        </mxCell>
        <mxCell id="2kMUtfdc5iDkAqZG1BJQ-7" value="" style="endArrow=none;dashed=1;html=1;dashPattern=1 3;strokeWidth=2;rounded=0;entryX=0.5;entryY=0.5;entryDx=0;entryDy=0;entryPerimeter=0;" edge="1" parent="1" target="2kMUtfdc5iDkAqZG1BJQ-5">
          <mxGeometry width="50" height="50" relative="1" as="geometry">
            <mxPoint x="45" y="400" as="sourcePoint" />
            <mxPoint x="67" y="150" as="targetPoint" />
          </mxGeometry>
        </mxCell>
        <mxCell id="2kMUtfdc5iDkAqZG1BJQ-9" value="" style="endArrow=none;dashed=1;html=1;dashPattern=1 3;strokeWidth=2;rounded=0;entryX=0.5;entryY=1;entryDx=0;entryDy=0;" edge="1" parent="1">
          <mxGeometry width="50" height="50" relative="1" as="geometry">
            <mxPoint x="865" y="1660" as="sourcePoint" />
            <mxPoint x="865" y="530" as="targetPoint" />
          </mxGeometry>
        </mxCell>
        <mxCell id="2kMUtfdc5iDkAqZG1BJQ-11" value="" style="endArrow=classic;html=1;rounded=0;" edge="1" parent="1">
          <mxGeometry width="50" height="50" relative="1" as="geometry">
            <mxPoint x="50" y="140" as="sourcePoint" />
            <mxPoint x="280" y="140" as="targetPoint" />
          </mxGeometry>
        </mxCell>
        <mxCell id="2kMUtfdc5iDkAqZG1BJQ-12" value="Accede a la pagina de sugerencias" style="edgeLabel;html=1;align=center;verticalAlign=middle;resizable=0;points=[];" connectable="0" vertex="1" parent="2kMUtfdc5iDkAqZG1BJQ-11">
          <mxGeometry x="-0.1758" y="4" relative="1" as="geometry">
            <mxPoint x="5" y="-6" as="offset" />
          </mxGeometry>
        </mxCell>
        <mxCell id="2kMUtfdc5iDkAqZG1BJQ-15" value="" style="endArrow=classic;html=1;rounded=0;" edge="1" parent="1">
          <mxGeometry width="50" height="50" relative="1" as="geometry">
            <mxPoint x="50" y="180" as="sourcePoint" />
            <mxPoint x="280" y="180" as="targetPoint" />
          </mxGeometry>
        </mxCell>
        <mxCell id="2kMUtfdc5iDkAqZG1BJQ-16" value="Completa formulario sin texto" style="text;html=1;align=center;verticalAlign=middle;resizable=0;points=[];autosize=1;strokeColor=none;fillColor=none;" vertex="1" parent="1">
          <mxGeometry x="50" y="150" width="180" height="30" as="geometry" />
        </mxCell>
        <mxCell id="2kMUtfdc5iDkAqZG1BJQ-17" value="" style="endArrow=classic;html=1;rounded=0;" edge="1" parent="1">
          <mxGeometry width="50" height="50" relative="1" as="geometry">
            <mxPoint x="45" y="216.81999999999994" as="sourcePoint" />
            <mxPoint x="280" y="217" as="targetPoint" />
          </mxGeometry>
        </mxCell>
        <mxCell id="2kMUtfdc5iDkAqZG1BJQ-18" value="Clic en botón Enviar sugerencia" style="text;html=1;align=center;verticalAlign=middle;resizable=0;points=[];autosize=1;strokeColor=none;fillColor=none;" vertex="1" parent="1">
          <mxGeometry x="50" y="190" width="190" height="30" as="geometry" />
        </mxCell>
        <mxCell id="2kMUtfdc5iDkAqZG1BJQ-19" value="" style="endArrow=classic;html=1;rounded=0;" edge="1" parent="1">
          <mxGeometry width="50" height="50" relative="1" as="geometry">
            <mxPoint x="280" y="240" as="sourcePoint" />
            <mxPoint x="280" y="260" as="targetPoint" />
            <Array as="points">
              <mxPoint x="330" y="240" />
              <mxPoint x="330" y="260" />
            </Array>
          </mxGeometry>
        </mxCell>
        <mxCell id="2kMUtfdc5iDkAqZG1BJQ-20" value="Válida texto.trim() === &quot;&quot;" style="text;html=1;align=center;verticalAlign=middle;resizable=0;points=[];autosize=1;strokeColor=none;fillColor=none;" vertex="1" parent="1">
          <mxGeometry x="280" y="220" width="150" height="30" as="geometry" />
        </mxCell>
        <mxCell id="2kMUtfdc5iDkAqZG1BJQ-33" value="" style="endArrow=classic;html=1;rounded=0;" edge="1" parent="1">
          <mxGeometry width="50" height="50" relative="1" as="geometry">
            <mxPoint x="280" y="310" as="sourcePoint" />
            <mxPoint x="45" y="312" as="targetPoint" />
          </mxGeometry>
        </mxCell>
        <mxCell id="2kMUtfdc5iDkAqZG1BJQ-34" value="Muestra&amp;nbsp;&quot;Por favor, escribe tu sugerencia&quot;" style="text;html=1;align=center;verticalAlign=middle;resizable=0;points=[];autosize=1;strokeColor=none;fillColor=none;" vertex="1" parent="1">
          <mxGeometry x="40" y="280" width="250" height="30" as="geometry" />
        </mxCell>
        <mxCell id="2kMUtfdc5iDkAqZG1BJQ-35" style="edgeStyle=orthogonalEdgeStyle;rounded=0;orthogonalLoop=1;jettySize=auto;html=1;exitX=0.5;exitY=1;exitDx=0;exitDy=0;" edge="1" parent="1">
          <mxGeometry relative="1" as="geometry">
            <mxPoint x="275" y="302" as="sourcePoint" />
            <mxPoint x="275" y="302" as="targetPoint" />
          </mxGeometry>
        </mxCell>
        <mxCell id="2kMUtfdc5iDkAqZG1BJQ-64" value="" style="endArrow=none;dashed=1;html=1;dashPattern=1 3;strokeWidth=2;rounded=0;entryX=0.5;entryY=1;entryDx=0;entryDy=0;" edge="1" parent="1" target="2kMUtfdc5iDkAqZG1BJQ-2">
          <mxGeometry width="50" height="50" relative="1" as="geometry">
            <mxPoint x="280" y="390" as="sourcePoint" />
            <mxPoint x="350" y="320" as="targetPoint" />
          </mxGeometry>
        </mxCell>
      </root>
    </mxGraphModel>
  </diagram>
</mxfile>
